<?xml version="1.0" encoding="UTF-8" standalone="no"?>
<svg
   xmlns:dc="http://purl.org/dc/elements/1.1/"
   xmlns:cc="http://creativecommons.org/ns#"
   xmlns:rdf="http://www.w3.org/1999/02/22-rdf-syntax-ns#"
   xmlns:svg="http://www.w3.org/2000/svg"
   xmlns="http://www.w3.org/2000/svg"
   viewBox="0 0 277.33334 154.66667"
   height="154.66667"
   width="277.33334"
   xml:space="preserve"
   id="svg2"
   version="1.1"><metadata
     id="metadata8"><rdf:RDF><cc:Work
         rdf:about=""><dc:format>image/svg+xml</dc:format><dc:type
           rdf:resource="http://purl.org/dc/dcmitype/StillImage" /></cc:Work></rdf:RDF></metadata><defs
     id="defs6" /><g
     transform="matrix(1.3333333,0,0,-1.3333333,0,154.66667)"
     id="g10"><g
       transform="scale(0.1)"
       id="g12"><path
         id="path14"
         style="fill:#9cb30b;fill-opacity:1;fill-rule:nonzero;stroke:none"
         d="m 135,460.82 c -18.012,0 -36.0195,-3.011 -52.5,-8.281 C 66.0195,447.301 51.7617,439.059 39.7695,428.551 27.7305,418.051 18.0117,404.57 10.5117,388.051 3.01172,371.559 0,352.07 0,329.57 0,310.039 3.75,292.809 9.76953,277.07 16.4805,261.289 26.25,247.809 38.2383,236.559 c 11.9922,-11.25 26.9922,-20.27 44.2617,-26.25 17.2695,-6.008 36.762,-9.758 58.52,-9.758 23.242,0 41.25,3.75 53.98,11.25 11.25,6.75 17.27,15.738 17.27,27.769 0,6.719 -1.532,12.731 -4.54,17.231 -2.218,3.75 -5.968,7.5 -10.46,11.25 -5.282,-2.231 -11.25,-4.5 -17.27,-6.762 -8.238,-2.969 -18.75,-3.75 -30,-3.75 -20.23,0 -36.762,6.012 -51.0195,18.75 -14.211,12.77 -21.711,30.781 -21.711,55.512 0,11.988 2.2188,22.5 5.9688,31.519 3.75,8.981 9.0312,16.481 15.7422,23.239 6.7575,5.98 14.2575,11.25 23.2895,14.261 18.75,6.719 40.46,5.981 57.73,0 6.762,-2.269 12.73,-4.531 18.012,-6.761 2.218,3.011 4.488,5.98 6.758,9.73 2.218,4.531 3.75,9.762 3.75,15 0,12.031 -6.02,21.762 -17.27,29.262 -14.262,8.238 -32.27,12.769 -56.25,12.769 z" /><path
         id="path16"
         style="fill:#9cb30b;fill-opacity:1;fill-rule:nonzero;stroke:none"
         d="m 357.73,407.539 c 18.75,0 32.27,-2.23 42.782,-7.5 11.988,-5.98 18.008,-15.738 18.008,-28.48 v -10.508 l -76.532,-8.242 c -28.468,-3.008 -50.226,-10.508 -63.75,-22.5 -12.726,-11.989 -19.488,-28.508 -19.488,-51.008 0,-13.481 3.012,-24.731 8.238,-35.242 5.282,-9.758 12.782,-18.008 22.5,-24.758 9.774,-6.762 22.5,-12 36.762,-15 14.262,-3.75 30.738,-5.242 49.488,-5.242 40.512,0 71.992,6.761 93.75,19.492 6.762,3.75 11.992,8.25 16.532,13.519 3.75,4.489 5.968,10.469 5.968,17.969 v 119.262 c 0,15.738 -3.008,29.25 -8.238,40.5 -5.23,11.25 -13.52,20.238 -23.238,27.738 -10.512,7.5 -23.242,12.77 -38.242,16.52 -24.77,5.98 -54.77,7.5 -89.258,3.011 -13.524,-1.519 -24.774,-4.531 -34.492,-8.281 -7.5,-2.969 -13.52,-7.5 -17.27,-11.988 -3.012,-3.75 -5.23,-9.731 -5.23,-17.231 0,-6.019 1.48,-12.031 3.75,-17.269 1.48,-3.75 3.75,-6.75 5.968,-8.981 9.774,3.75 20.282,6.719 31.532,8.981 12.73,3.75 26.25,5.238 40.46,5.238 z M 375,250.82 c -15,0 -25.512,2.969 -33.012,8.239 -7.5,5.98 -11.25,13.48 -11.25,23.242 0,9.769 4.492,18.008 13.524,22.5 7.5,3.75 16.476,6.758 27.726,7.5 l 46.532,3.75 v -54.762 l -3.75,-2.23 c -4.54,-3.008 -10.508,-4.489 -18.75,-6.008 -7.5,-1.492 -15,-2.231 -21.02,-2.231 z" /><path
         id="path18"
         style="fill:#9cb30b;fill-opacity:1;fill-rule:nonzero;stroke:none"
         d="m 683.98,404.57 c 12.782,0 22.5,-3.011 30,-9.769 8.29,-6.75 12.04,-16.481 12.04,-30 V 239.57 c 0,-7.5 0.742,-14.261 2.96,-18.75 1.532,-4.531 4.54,-7.5 7.5,-9.769 3.008,-2.262 7.5,-4.492 12.782,-5.231 11.988,-2.269 28.468,-2.269 42.726,0 3.75,0.739 7.5,1.481 10.512,1.481 v 161.25 c 0,29.258 -9.77,51.019 -30,67.5 -20.23,16.488 -49.488,24.769 -87.73,24.769 -21.758,0 -41.25,-2.269 -59.258,-7.5 -17.274,-5.269 -32.274,-12.031 -43.524,-19.531 -5.968,-4.488 -11.25,-8.988 -15,-14.219 -3.008,-4.531 -4.488,-11.25 -4.488,-19.531 V 239.57 c 0,-7.5 0.738,-14.261 3.012,-18.75 1.476,-4.531 4.488,-7.5 7.5,-9.769 3.008,-2.262 7.5,-4.492 12.726,-5.231 11.992,-2.269 28.524,-2.269 42.782,0 3.75,0.739 7.5,1.481 10.46,1.481 v 183.008 l 3.008,2.23 c 6.024,3.75 12.782,7.5 20.282,9.02 5.968,2.23 13.468,3.011 21.71,3.011 z" /><path
         id="path20"
         style="fill:#9cb30b;fill-opacity:1;fill-rule:nonzero;stroke:none"
         d="m 994.488,404.57 c 12.782,0 22.502,-3.011 30.002,-9.769 8.24,-6.75 11.99,-16.481 11.99,-30 V 239.57 c 0,-7.5 0.79,-14.261 3.01,-18.75 1.53,-4.531 4.49,-7.5 7.5,-9.769 3.01,-2.262 7.5,-4.492 12.78,-5.231 11.99,-2.269 28.47,-2.269 42.73,0 3.75,0.739 7.5,1.481 10.51,1.481 v 161.25 c 0,29.258 -9.77,51.019 -30,67.5 -20.28,16.488 -49.49,24.769 -87.78,24.769 -21.71,0 -41.25,-2.269 -59.21,-7.5 -17.27,-5.269 -32.27,-12.031 -43.52,-19.531 -6.02,-4.488 -11.25,-8.988 -15,-14.219 -3.012,-4.531 -4.488,-11.25 -4.488,-19.531 V 239.57 c 0,-7.5 0.738,-14.261 3.008,-18.75 1.48,-4.531 4.492,-7.5 7.5,-9.769 2.96,-2.262 7.5,-4.492 12.73,-5.231 11.988,-2.269 28.52,-2.269 42.73,0 3.75,0.739 7.5,1.481 10.508,1.481 v 183.008 l 3.012,2.23 c 6.02,3.75 12.73,7.5 20.23,9.02 6.758,2.23 14.258,3.011 21.758,3.011 z" /><path
         id="path22"
         style="fill:#9cb30b;fill-opacity:1;fill-rule:nonzero;stroke:none"
         d="m 1269.77,407.539 c 18.75,0 32.22,-2.23 42.73,-7.5 11.99,-5.98 18.01,-15.738 18.01,-28.48 v -10.508 l -76.53,-8.242 c -28.47,-3.008 -50.23,-10.508 -63.75,-22.5 -12.73,-11.989 -19.49,-28.508 -19.49,-51.008 0,-13.481 3.01,-24.731 8.24,-35.242 5.28,-9.758 12.78,-18.008 22.5,-24.758 9.77,-6.762 22.5,-12 36.76,-15 14.26,-3.75 30.74,-5.242 49.49,-5.242 40.51,0 72.04,6.761 93.75,19.492 6.76,3.75 12.04,8.25 16.53,13.519 3.75,4.489 5.97,10.469 5.97,17.969 v 119.262 c 0,15.738 -2.96,29.25 -8.24,40.5 -5.23,11.25 -13.47,20.238 -23.24,27.738 -10.51,7.5 -23.24,12.77 -38.24,16.52 -24.77,5.98 -54.77,7.5 -89.26,3.011 -13.52,-1.519 -24.77,-4.531 -34.49,-8.281 -7.5,-2.969 -13.52,-7.5 -17.27,-11.988 -3.01,-3.75 -5.23,-9.731 -5.23,-17.231 0,-6.019 1.48,-12.031 3.75,-17.269 1.48,-3.75 3.75,-6.75 5.97,-8.981 9.77,3.75 20.28,6.719 31.53,8.981 12.73,3.75 26.99,5.238 40.51,5.238 z m 17.22,-156.719 c -15,0 -25.51,2.969 -33.01,8.239 -7.5,5.98 -11.25,13.48 -11.25,23.242 0,9.769 4.54,18.008 13.52,22.5 7.5,3.75 16.48,6.758 27.73,7.5 l 46.53,3.75 v -54.762 l -3.75,-2.23 c -4.49,-3.008 -10.51,-4.489 -18.75,-6.008 -7.5,-1.492 -14.26,-2.231 -21.02,-2.231 z" /><path
         id="path24"
         style="fill:#9cb30b;fill-opacity:1;fill-rule:nonzero;stroke:none"
         d="M 1475.23,542.539 V 239.57 c 0,-7.5 0.79,-14.261 3.01,-18.75 1.53,-4.531 4.49,-7.5 7.5,-9.769 3.01,-2.262 7.5,-4.492 12.78,-5.231 11.25,-2.269 27.73,-2.269 41.99,0 4.49,0.739 8.24,1.481 11.25,1.481 v 303.008 c 0,7.5 -0.74,14.261 -3.01,18.75 -1.48,4.492 -4.49,7.5 -7.5,9.73 -3.01,2.262 -7.5,4.531 -12.73,5.27 -11.25,2.23 -27.04,2.23 -42.04,0 -4.49,-0.739 -8.24,-1.52 -11.25,-1.52 z" /><path
         id="path26"
         style="fill:#9cb30b;fill-opacity:1;fill-rule:nonzero;stroke:none"
         d="M 1625.23,450.309 V 239.57 c 0,-7.5 0.79,-14.261 3.01,-18.75 1.53,-4.531 4.49,-7.5 7.5,-9.769 3.01,-2.262 7.5,-4.492 12.78,-5.231 11.25,-2.269 26.99,-2.269 41.99,0 4.49,0.739 8.24,1.481 11.25,1.481 v 210.75 c 0,7.5 -0.74,14.25 -3.01,18.75 -1.48,4.488 -4.49,7.5 -7.5,9.758 -3.01,2.23 -7.5,4.492 -12.73,5.242 -11.25,2.258 -27.04,2.258 -42.04,0 -4.49,-0.75 -8.24,-1.492 -11.25,-1.492 z" /><path
         id="path28"
         style="fill:#9cb30b;fill-opacity:1;fill-rule:nonzero;stroke:none"
         d="m 1662.73,572.539 c -12.73,0 -23.24,-3.75 -30.74,-11.25 -7.5,-7.5 -11.25,-17.23 -11.25,-29.219 0,-11.25 3.75,-21.019 11.25,-29.261 7.5,-7.5 18.01,-11.25 30.74,-11.25 12.78,0 23.29,3.75 30.79,11.25 7.5,7.5 11.25,17.23 11.25,29.261 0,11.25 -3.75,20.981 -11.25,29.219 -7.5,7.5 -17.27,11.25 -30.79,11.25 z" /><path
         id="path30"
         style="fill:#9cb30b;fill-opacity:1;fill-rule:nonzero;stroke:none"
         d="m 1896.02,404.57 c 12.73,0 22.5,-3.011 30,-9.769 8.24,-6.75 11.99,-16.481 11.99,-30 V 239.57 c 0,-7.5 0.74,-14.261 3.01,-18.75 1.48,-4.531 4.49,-7.5 7.5,-9.769 2.96,-2.262 7.5,-4.492 12.73,-5.231 11.99,-2.269 28.52,-2.269 42.73,0 3.75,0.739 7.5,1.481 10.51,1.481 v 161.25 c 0,29.258 -9.72,51.019 -30,67.5 -20.23,16.488 -49.49,24.769 -87.73,24.769 -21.76,0 -41.25,-2.269 -59.26,-7.5 -17.27,-5.269 -32.27,-12.031 -43.52,-19.531 -5.97,-4.488 -11.25,-8.988 -15,-14.219 -2.96,-4.531 -4.49,-11.25 -4.49,-19.531 V 239.57 c 0,-7.5 0.74,-14.261 3.01,-18.75 1.48,-4.531 4.49,-7.5 7.5,-9.769 3.01,-2.262 7.5,-4.492 12.73,-5.231 12.04,-2.269 28.52,-2.269 42.78,0 3.75,0.739 7.5,1.481 10.51,1.481 v 183.008 l 2.96,2.23 c 6.02,3.75 12.78,7.5 20.28,9.02 5.97,2.23 13.47,3.011 21.76,3.011 z" /><path
         id="path32"
         style="fill:#4c673d;fill-opacity:1;fill-rule:nonzero;stroke:none"
         d="m 943.52,951.289 c 2.218,72.771 19.492,136.521 55.46,195.781 9.77,16.48 16.53,17.97 26.25,0 75,-130.51 74.26,-261.019 -0.74,-391.519 -11.99,-20.981 -18.01,-11.25 -26.252,2.258 -36.758,61.492 -53.976,128.242 -54.718,193.48 z" /><path
         id="path34"
         style="fill:#4c673d;fill-opacity:1;fill-rule:nonzero;stroke:none"
         d="m 981.02,709.059 c -117.782,13.48 -245.282,129.73 -261.758,233.992 -4.492,26.988 15,12.769 23.238,10.5 116.988,-34.492 194.262,-107.262 231.762,-218.981 2.218,-6.761 3.75,-15 6.758,-25.511 z" /><path
         id="path36"
         style="fill:#4c673d;fill-opacity:1;fill-rule:nonzero;stroke:none"
         d="m 1045.51,709.059 c 20.97,115.511 123.75,219.73 239.26,245.98 14.21,3.012 24.72,6.762 20.23,-15 C 1281.02,832.07 1161.02,723.32 1045.51,709.059 Z" /><path
         id="path38"
         style="fill:#4c673d;fill-opacity:1;fill-rule:nonzero;stroke:none"
         d="m 686.988,673.051 c 76.532,56.25 202.5,56.25 277.5,1.519 -69.718,-54.769 -188.238,-56.25 -277.5,-1.519 z" /><path
         id="path40"
         style="fill:#4c673d;fill-opacity:1;fill-rule:nonzero;stroke:none"
         d="m 1057.5,673.051 c 73.52,56.25 200.23,56.25 277.5,2.258 -66.76,-55.508 -187.5,-56.989 -277.5,-2.258 z" /><path
         id="path42"
         style="fill:#4c673d;fill-opacity:1;fill-rule:nonzero;stroke:none"
         d="m 829.488,508.789 c 9.774,64.531 68.242,120.781 135,129.02 -5.968,-62.258 -68.976,-122.258 -135,-129.02 z" /><path
         id="path44"
         style="fill:#4c673d;fill-opacity:1;fill-rule:nonzero;stroke:none"
         d="m 1193.98,509.57 c -65.23,5.981 -123.75,61.481 -135.74,128.239 62.27,-3.008 125.28,-63.008 135.74,-128.239 z" /><path
         id="path46"
         style="fill:#4c673d;fill-opacity:1;fill-rule:nonzero;stroke:none"
         d="m 579.77,4.80078 c 0,0 -1.532,-0.74219 -3.75,-0.74219 -2.27,0 -4.54,0 -8.29,0 V 57.3008 H 542.27 V 6.28906 c 0,-0.73828 0,-1.48828 -0.79,-2.23047 0,0 -1.48,-0.73828 -3.75,-0.73828 -2.218,0 -5.23,0 -8.242,0 V 112.07 c 0,0.739 0,1.481 0.742,2.231 0,0 1.532,0.738 3.75,0.738 2.27,0 5.282,0 8.29,0 V 70.0391 h 25.46 V 112.07 c 0,0.739 0,1.481 0.79,2.231 0,0 1.48,0.738 3.75,0.738 2.218,0 4.492,0 8.242,0 V 7.07031 c 0,-1.51953 -0.742,-2.26953 -0.742,-2.26953 z" /><path
         id="path48"
         style="fill:#4c673d;fill-opacity:1;fill-rule:nonzero;stroke:none"
         d="m 615,15.3086 h 26.988 c 0,-3.0078 0,-5.2695 0,-7.50001 0,-2.25781 0,-3.00781 -0.738,-3.75 0,-0.73828 -0.738,-0.73828 -1.48,-0.73828 h -37.5 V 112.07 c 0,0.739 0,0.739 0.742,1.481 0.738,0.75 0.738,0.75 2.218,0.75 h 37.5 c 0,-3.012 0,-5.242 0,-7.5 0,-2.231 0,-3.012 -0.742,-3.75 0,-0.75 -0.738,-0.75 -1.476,-0.75 H 615 V 69.3008 h 23.98 c 0,-3.0117 0,-5.2422 0,-6.7617 0,-2.2305 0,-2.9688 -0.742,-3.75 0,-0.7383 -0.738,-0.7383 -1.476,-0.7383 H 615 Z" /><path
         id="path50"
         style="fill:#4c673d;fill-opacity:1;fill-rule:nonzero;stroke:none"
         d="M 720.738,4.80078 C 720,4.05859 718.52,4.05859 716.25,4.05859 c -3.012,0 -5.23,0 -7.5,0 L 701.988,31.8008 H 674.262 L 668.238,6.28906 c 0,-0.73828 -0.738,-1.48828 -1.476,-2.23047 -0.742,0 -2.274,-0.73828 -4.492,-0.73828 -2.27,0 -4.54,0 -7.5,0.73828 L 683.238,112.07 c 0,1.481 2.274,2.231 4.492,2.231 2.27,0 4.54,0 6.02,-0.75 L 722.27,5.55078 c -0.79,0 -0.79,-0.75 -1.532,-0.75 z m -21.758,38.98832 -5.23,22.5 c -3.012,12.7695 -5.23,23.2812 -5.23,30.7812 -1.532,-9.0195 -3.008,-19.5312 -6.02,-30.7812 l -5.23,-22.5 z" /><path
         id="path52"
         style="fill:#4c673d;fill-opacity:1;fill-rule:nonzero;stroke:none"
         d="m 736.48,110.551 c 0,1.519 0,2.258 0.79,3 0.742,0.75 1.48,0.75 2.96,0.75 1.532,0 4.54,0 9.032,0 V 16.0508 H 776.25 V 6.28906 c 0,-0.73828 0,-1.48828 -0.738,-2.23047 -0.742,-0.73828 -0.742,-0.73828 -2.274,-0.73828 h -37.5 V 110.551 Z" /><path
         id="path54"
         style="fill:#4c673d;fill-opacity:1;fill-rule:nonzero;stroke:none"
         d="m 832.5,114.301 v -8.992 c 0,-0.739 0,-1.52 -0.738,-2.258 -0.742,0 -0.742,-0.75 -2.274,-0.75 H 810 V 7.07031 c 0,-0.78125 0,-1.51953 -0.738,-2.26953 -0.742,0 -1.532,-0.74219 -3.75,-0.74219 -2.274,0 -5.282,0 -8.242,0 V 102.301 h -21.758 v 9.769 c 0,1.481 0.738,2.231 3.008,2.231 z" /><path
         id="path56"
         style="fill:#4c673d;fill-opacity:1;fill-rule:nonzero;stroke:none"
         d="m 898.52,4.80078 c 0,0 -1.532,-0.74219 -3.75,-0.74219 -2.27,0 -4.54,0 -8.29,0 V 57.3008 H 861.762 V 6.28906 c 0,-0.73828 0,-1.48828 -0.742,-2.23047 0,0 -1.532,-0.73828 -3.75,-0.73828 -2.27,0 -5.282,0 -8.29,0 V 112.07 c 0,0.739 0,1.481 0.79,2.231 0,0 1.48,0.738 3.75,0.738 2.218,0 5.23,0 8.242,0 V 70.0391 H 887.27 V 112.07 c 0,0.739 0,1.481 0.742,2.231 0,0 1.476,0.738 3.75,0.738 2.218,0 4.488,0 8.238,0 V 7.07031 c -0.738,-1.51953 -0.738,-2.26953 -1.48,-2.26953 z" /><path
         id="path58"
         style="fill:#4c673d;fill-opacity:1;fill-rule:nonzero;stroke:none"
         d="m 953.98,111.289 c 0,0.781 0,1.52 0.79,2.262 0.742,0.75 1.48,0.75 2.96,0.75 h 15.79 c 17.96,0 26.25,-8.25 26.25,-23.9924 0,-8.2383 -1.532,-14.2578 -4.54,-18.0078 -2.96,-4.4922 -6.71,-6.75 -10.46,-7.5 5.23,0 8.98,-2.2617 12.73,-5.2305 3.75,-3.0117 5.23,-9.0195 5.23,-17.2695 0,-12.7305 -2.96,-21.75 -8.242,-28.5117 C 989.262,7.80859 981.762,4.80078 972.73,4.80078 H 953.238 V 111.289 Z m 20.282,-41.9882 c 3.75,0 6.758,1.5195 8.238,4.4883 2.27,3.0117 3.012,7.5 3.012,13.5117 0,10.5078 -3.75,15.7502 -11.992,15.7502 h -7.5 V 69.3008 Z m 0,-53.9922 c 4.488,0 7.5,2.2305 10.508,5.9805 2.96,3.75 4.492,10.5117 4.492,18.75 0,5.2695 -0.742,9.0195 -1.532,12.0312 -1.48,2.2305 -2.96,4.4883 -5.23,5.2305 -2.27,0.75 -4.488,1.4883 -8.238,1.4883 h -7.5 V 15.3086 Z" /><path
         id="path60"
         style="fill:#4c673d;fill-opacity:1;fill-rule:nonzero;stroke:none"
         d="m 1046.99,7.07031 c 0,-0.78125 0,-1.51953 -0.74,-2.26953 -0.74,-0.74219 -1.48,-0.74219 -3.75,-0.74219 -2.27,0 -5.23,0 -8.24,0 V 49.0586 L 1012.5,112.07 c 0,0.739 0,1.481 0,1.481 0.74,0 1.48,0.75 4.49,0.75 3.01,0 6.02,0 9.77,0 l 5.97,-21.7619 c 1.53,-5.2383 3.01,-11.25 5.28,-18.75 1.48,-7.5 3.01,-11.9883 3.01,-15 0,2.2617 1.48,7.5 2.96,14.2617 1.53,6.75 3.75,13.5078 5.28,18.75 l 5.23,19.4882 c 0,0.781 0.74,1.52 0.74,1.52 0.79,0 1.53,0.742 3.75,0.742 2.27,0 5.28,0 9.03,0 l -21.02,-64.4924 z" /><path
         id="path62"
         style="fill:#4c673d;fill-opacity:1;fill-rule:nonzero;stroke:none"
         d="m 1160.23,113.551 c 0.79,0 1.53,0.75 3.75,0.75 2.27,0 5.28,0 8.29,0 V 7.07031 c 0,-1.51953 -0.79,-2.26953 -3.01,-2.26953 h -9.77 l -18.01,43.51952 c -2.22,6.7188 -7.5,21.7188 -15,45 0.79,-4.5312 0.79,-12.0312 0.79,-22.5 0,-10.5117 0.74,-18.75 0.74,-24.7695 V 7.80859 c 0,-0.73828 0,-1.51953 -0.74,-2.25781 -0.79,-0.75 -1.53,-0.75 -3.75,-0.75 -2.27,0 -5.28,0 -8.29,0 V 112.07 c 0,1.481 0.79,2.231 2.27,2.231 h 9.77 l 17.96,-42.7424 c 1.53,-3.75 5.28,-15 12.04,-34.4883 0.74,-1.5195 1.48,-4.5312 3.75,-10.5117 v 0.7422 c -0.79,3.75 -0.79,11.25 -1.53,22.5 0,10.5078 -0.74,18.75 -0.74,24.7695 V 112.07 c 0.74,0.739 0.74,1.481 1.48,1.481 z" /><path
         id="path64"
         style="fill:#4c673d;fill-opacity:1;fill-rule:nonzero;stroke:none"
         d="m 1253.24,4.80078 c -0.74,-0.74219 -2.22,-0.74219 -4.49,-0.74219 -3.01,0 -5.23,0 -7.5,0 l -6.76,27.74221 h -27.73 l -6.02,-25.51174 c 0,-0.73828 -0.74,-1.48828 -1.48,-2.23047 -0.74,0 -2.27,-0.73828 -4.49,-0.73828 -2.27,0 -4.54,0 -7.5,0.73828 L 1215.74,112.07 c 0,1.481 2.27,2.231 4.49,2.231 2.27,0 4.54,0 6.02,-0.75 L 1254.77,5.55078 c 0,0 -0.79,-0.75 -1.53,-0.75 z m -21.76,38.98832 -5.23,22.5 c -3.01,12.7695 -5.23,23.2812 -5.23,30.7812 -1.53,-9.0195 -3.01,-19.5312 -6.02,-30.7812 l -5.23,-22.5 z" /><path
         id="path66"
         style="fill:#4c673d;fill-opacity:1;fill-rule:nonzero;stroke:none"
         d="m 1312.5,114.301 v -8.992 c 0,-0.739 0,-1.52 -0.74,-2.258 -0.74,0 -0.74,-0.75 -2.27,-0.75 H 1290 V 7.07031 c 0,-0.78125 0,-1.51953 -0.74,-2.26953 -0.74,0 -1.53,-0.74219 -3.75,-0.74219 -2.27,0 -5.28,0 -8.24,0 V 102.301 h -21.76 v 9.769 c 0,1.481 0.74,2.231 3.01,2.231 z" /><path
         id="path68"
         style="fill:#4c673d;fill-opacity:1;fill-rule:nonzero;stroke:none"
         d="m 1338.75,7.07031 c -4.49,2.96879 -6.76,6.71879 -8.24,11.24999 -1.53,4.4883 -2.27,10.4688 -2.27,17.9688 v 74.9999 c 0,0.781 0,1.52 0.74,2.262 0.79,0.75 1.53,0.75 3.75,0.75 2.27,0 5.28,0 9.03,0 V 35.5508 c 0,-7.5 0.74,-12.7422 3.01,-16.4922 2.22,-3.75 5.97,-5.2695 11.99,-5.2695 2.22,0 5.23,0 7.5,0.7812 2.22,0.7383 4.49,1.4805 5.97,2.2305 V 112.07 c 0,0.739 0,1.481 0.79,2.231 0.74,0.738 1.48,0.738 3.75,0.738 2.22,0 5.23,0 8.24,0 V 8.55078 c -2.27,-1.48047 -6.02,-3 -10.51,-3.75 -5.23,-1.48047 -10.51,-1.48047 -15.74,-1.48047 -8.24,-0.78125 -14.26,0.73828 -18.01,3.75 z" /><path
         id="path70"
         style="fill:#4c673d;fill-opacity:1;fill-rule:nonzero;stroke:none"
         d="m 1447.5,34.0586 c 3.01,-7.5 4.49,-16.5195 5.23,-27.76954 0,-1.48828 0,-2.23047 -0.74,-2.23047 -0.74,0 -2.22,-0.73828 -5.23,-0.73828 -1.53,0 -3.75,0 -7.5,0 -0.74,11.24999 -2.27,20.98049 -5.28,28.48049 -2.22,7.5 -5.23,12.7695 -8.24,16.5195 -0.74,0 -1.48,0 -3.01,0 h -5.97 V 6.28906 c 0,-0.73828 0,-1.48828 -0.74,-2.23047 0,0 -1.53,-0.73828 -3.75,-0.73828 -2.27,0 -5.28,0 -8.29,0 V 112.07 c 0,0.739 0,0.739 0.79,1.481 0.74,0.75 0.74,0.75 2.22,0.75 h 15.74 c 9.77,0 17.27,-2.231 21.76,-7.5 4.49,-5.242 6.76,-12.7424 6.76,-23.2502 0,-15.7422 -4.49,-25.5 -13.52,-30.7422 3.75,-4.4883 7.5,-10.5078 9.77,-18.75 z m -23.24,26.9922 c 4.49,0 8.24,1.4883 10.51,5.2383 2.22,3.75 2.96,9.7617 2.96,18.0117 0,6.75 -0.74,11.25 -2.96,14.25 -2.27,3.0082 -5.28,5.2382 -9.77,5.2382 h -7.5 V 61.0508 Z" /><path
         id="path72"
         style="fill:#4c673d;fill-opacity:1;fill-rule:nonzero;stroke:none"
         d="m 1484.26,15.3086 h 26.99 c 0,-3.0078 0,-5.2695 0,-7.50001 0,-2.25781 0,-3.00781 -0.74,-3.75 0,-0.73828 -0.74,-0.73828 -1.53,-0.73828 h -37.5 V 112.07 c 0,0.739 0,0.739 0.79,1.481 0.74,0.75 0.74,0.75 2.22,0.75 h 37.5 c 0,-3.012 0,-5.242 0,-7.5 0,-2.231 0,-3.012 -0.74,-3.75 0,-0.75 -0.74,-0.75 -1.48,-0.75 h -25.51 V 69.3008 h 23.98 c 0,-3.0117 0,-5.2422 0,-6.7617 0,-1.4883 0,-2.9688 -0.74,-3.75 0,-0.7383 -0.74,-0.7383 -1.48,-0.7383 h -21.76 z" /><path
         id="path74"
         style="fill:#9cb30b;fill-opacity:1;fill-rule:nonzero;stroke:none"
         d="m 2045.23,508.789 c -4.49,0 -8.98,-0.738 -12.73,-2.23 -3.75,-1.52 -7.5,-3.75 -9.77,-6.758 -2.96,-3 -5.23,-6.012 -6.71,-9.762 -1.53,-3.75 -2.27,-7.5 -2.27,-11.988 0,-4.5 0.74,-8.25 2.27,-12 1.48,-3.75 3.75,-6.75 6.71,-9.762 3.01,-2.969 6.02,-5.238 9.77,-6.719 3.75,-1.519 8.24,-2.269 12.73,-2.269 4.54,0 9.03,0.75 12.78,2.269 3.75,1.481 7.5,3.75 9.72,6.719 3.01,3.012 5.28,6.012 6.76,9.762 1.53,3.75 2.27,7.5 2.27,12 0,4.488 -0.74,8.238 -2.27,11.988 -1.48,3.75 -3.75,6.762 -6.76,9.762 -2.96,3.008 -5.97,5.238 -9.72,6.758 -3.75,1.492 -8.24,2.23 -12.78,2.23 z m 0,-53.988 c -3.75,0 -6.71,0.75 -9.72,1.488 -3.01,1.52 -5.28,3.012 -7.5,5.27 -2.27,2.23 -3.75,4.492 -4.49,7.5 -0.79,3.011 -1.53,5.98 -1.53,9.73 0,3.012 0.74,6.762 1.53,9.762 0.74,3.008 2.96,5.238 4.49,7.5 2.22,2.269 4.49,3.75 7.5,5.238 3.01,1.52 5.97,1.52 9.72,1.52 3.75,0 6.76,-0.739 9.77,-1.52 3.01,-1.488 5.23,-2.969 7.5,-5.238 2.27,-2.262 3.75,-4.492 4.49,-7.5 0.74,-3 1.53,-6.012 1.53,-9.762 0,-3.75 -0.79,-6.719 -1.53,-9.73 -0.74,-3.008 -2.22,-5.27 -4.49,-7.5 -2.27,-2.258 -4.49,-3.75 -7.5,-5.27 -3.01,-0.738 -6.02,-1.488 -9.77,-1.488 z" /><path
         id="path76"
         style="fill:#9cb30b;fill-opacity:1;fill-rule:nonzero;stroke:none"
         d="m 2041.48,474.301 h 3.01 l 4.49,-7.5 c 0.79,-0.75 1.53,-2.231 2.27,-3.012 0.74,-0.738 3.75,-1.488 5.23,0 0.79,0 0.79,0.781 1.53,1.52 -0.74,0.742 -1.53,2.23 -2.27,3.75 -1.48,1.492 -2.22,3.011 -3.75,5.242 l -0.74,1.519 1.48,0.739 c 1.53,0.742 2.27,1.492 3.75,3.011 0.79,1.481 1.53,2.969 1.53,4.489 0,3.011 -0.74,5.242 -3.01,7.5 -2.27,1.492 -5.23,3.011 -9.77,3.011 -1.48,0 -2.96,0 -5.23,0 -1.48,0 -3.01,-0.781 -3.75,-0.781 -1.48,-0.738 -1.48,-0.738 -1.48,-1.488 v -24.762 c 0,-1.488 0,-2.23 0.74,-2.23 1.48,-0.739 3.75,-0.739 5.97,-0.739 h 0.79 v 9.731 z m 3.01,4.488 h -3.01 v 9.762 h 1.53 c 0,0 0,0 0.74,0 0,0 0.74,0 1.48,0 5.28,0 6.02,-3.75 6.02,-5.231 0,-1.519 -0.74,-3.011 -1.48,-3.75 -2.27,-0.781 -3.75,-0.781 -5.28,-0.781 z" /></g></g></svg>